<svg xmlns="http://www.w3.org/2000/svg" xmlns:xlink="http://www.w3.org/1999/xlink" width="500" zoomAndPan="magnify" viewBox="0 0 375 374.999991" height="500" preserveAspectRatio="xMidYMid meet" version="1.2"><g id="1025c73c61"><path style=" stroke:none;fill-rule:nonzero;fill:#ef5152;fill-opacity:1;" d="M 135.792969 299.703125 L 135.792969 381.566406 L -0.00390625 381.566406 L -0.00390625 299.703125 Z M 135.792969 299.703125 "/><path style=" stroke:none;fill-rule:nonzero;fill:#ffd048;fill-opacity:1;" d="M 209.535156 304.023438 C 209.535156 305.292969 209.503906 306.558594 209.441406 307.828125 C 209.378906 309.09375 209.285156 310.359375 209.160156 311.621094 C 209.039062 312.886719 208.882812 314.144531 208.695312 315.398438 C 208.511719 316.65625 208.292969 317.90625 208.046875 319.148438 C 207.800781 320.394531 207.519531 321.632812 207.214844 322.863281 C 206.90625 324.09375 206.566406 325.316406 206.199219 326.53125 C 205.832031 327.746094 205.433594 328.949219 205.007812 330.144531 C 204.578125 331.339844 204.121094 332.523438 203.636719 333.695312 C 203.152344 334.871094 202.636719 336.03125 202.097656 337.175781 C 201.554688 338.324219 200.984375 339.457031 200.386719 340.578125 C 199.789062 341.695312 199.164062 342.800781 198.511719 343.886719 C 197.859375 344.976562 197.183594 346.046875 196.476562 347.101562 C 195.773438 348.160156 195.042969 349.195312 194.289062 350.214844 C 193.53125 351.234375 192.753906 352.234375 191.949219 353.214844 C 191.144531 354.195312 190.316406 355.15625 189.464844 356.097656 C 188.613281 357.039062 187.738281 357.957031 186.84375 358.855469 C 185.945312 359.75 185.027344 360.625 184.089844 361.480469 C 183.148438 362.332031 182.191406 363.160156 181.210938 363.964844 C 180.230469 364.769531 179.230469 365.550781 178.210938 366.304688 C 177.191406 367.0625 176.15625 367.792969 175.101562 368.496094 C 174.046875 369.203125 172.976562 369.882812 171.890625 370.535156 C 170.800781 371.1875 169.699219 371.8125 168.582031 372.410156 C 167.460938 373.007812 166.332031 373.578125 165.183594 374.121094 C 164.039062 374.664062 162.878906 375.179688 161.707031 375.664062 C 160.535156 376.148438 159.355469 376.605469 158.160156 377.035156 C 156.964844 377.460938 155.761719 377.859375 154.550781 378.226562 C 153.335938 378.597656 152.113281 378.933594 150.882812 379.242188 C 149.65625 379.550781 148.417969 379.828125 147.175781 380.078125 C 145.929688 380.324219 144.679688 380.542969 143.425781 380.726562 C 142.171875 380.914062 140.914062 381.070312 139.652344 381.191406 C 138.390625 381.316406 137.128906 381.410156 135.859375 381.472656 C 134.59375 381.535156 133.328125 381.566406 132.058594 381.566406 C 130.792969 381.566406 129.523438 381.535156 128.257812 381.472656 C 126.992188 381.410156 125.726562 381.316406 124.464844 381.191406 C 123.203125 381.070312 121.945312 380.914062 120.691406 380.726562 C 119.4375 380.542969 118.1875 380.324219 116.945312 380.078125 C 115.699219 379.828125 114.464844 379.550781 113.234375 379.242188 C 112.003906 378.933594 110.78125 378.597656 109.570312 378.226562 C 108.355469 377.859375 107.152344 377.460938 105.957031 377.035156 C 104.765625 376.605469 103.582031 376.148438 102.410156 375.664062 C 101.238281 375.179688 100.082031 374.664062 98.933594 374.121094 C 97.789062 373.578125 96.65625 373.007812 95.539062 372.410156 C 94.417969 371.8125 93.316406 371.1875 92.230469 370.535156 C 91.140625 369.882812 90.070312 369.203125 89.015625 368.496094 C 87.960938 367.792969 86.925781 367.0625 85.90625 366.304688 C 84.890625 365.550781 83.890625 364.769531 82.910156 363.964844 C 81.929688 363.160156 80.96875 362.332031 80.03125 361.480469 C 79.089844 360.625 78.171875 359.75 77.277344 358.855469 C 76.378906 357.957031 75.503906 357.039062 74.652344 356.097656 C 73.800781 355.15625 72.972656 354.195312 72.167969 353.214844 C 71.367188 352.234375 70.585938 351.234375 69.832031 350.214844 C 69.074219 349.195312 68.34375 348.160156 67.640625 347.101562 C 66.9375 346.046875 66.257812 344.976562 65.605469 343.886719 C 64.953125 342.800781 64.328125 341.695312 63.730469 340.578125 C 63.132812 339.457031 62.5625 338.324219 62.023438 337.175781 C 61.480469 336.03125 60.964844 334.871094 60.480469 333.695312 C 59.996094 332.523438 59.539062 331.339844 59.113281 330.144531 C 58.683594 328.949219 58.289062 327.746094 57.917969 326.53125 C 57.550781 325.316406 57.214844 324.09375 56.90625 322.863281 C 56.597656 321.632812 56.320312 320.394531 56.074219 319.148438 C 55.824219 317.90625 55.609375 316.65625 55.421875 315.398438 C 55.234375 314.144531 55.082031 312.886719 54.957031 311.621094 C 54.832031 310.359375 54.738281 309.09375 54.675781 307.828125 C 54.613281 306.558594 54.582031 305.292969 54.582031 304.023438 C 54.582031 302.753906 54.613281 301.484375 54.675781 300.21875 C 54.738281 298.949219 54.832031 297.683594 54.957031 296.421875 C 55.082031 295.160156 55.234375 293.898438 55.421875 292.644531 C 55.609375 291.386719 55.824219 290.136719 56.074219 288.894531 C 56.320312 287.648438 56.597656 286.410156 56.90625 285.179688 C 57.214844 283.949219 57.550781 282.726562 57.917969 281.511719 C 58.289062 280.296875 58.683594 279.09375 59.113281 277.898438 C 59.539062 276.703125 59.996094 275.519531 60.480469 274.347656 C 60.964844 273.175781 61.480469 272.015625 62.023438 270.867188 C 62.5625 269.71875 63.132812 268.585938 63.730469 267.46875 C 64.328125 266.347656 64.953125 265.246094 65.605469 264.15625 C 66.257812 263.066406 66.9375 261.996094 67.640625 260.941406 C 68.34375 259.886719 69.074219 258.847656 69.832031 257.828125 C 70.585938 256.808594 71.367188 255.808594 72.167969 254.828125 C 72.972656 253.847656 73.800781 252.886719 74.652344 251.945312 C 75.503906 251.007812 76.378906 250.085938 77.277344 249.191406 C 78.171875 248.292969 79.089844 247.417969 80.03125 246.566406 C 80.96875 245.714844 81.929688 244.882812 82.910156 244.078125 C 83.890625 243.273438 84.890625 242.492188 85.90625 241.738281 C 86.925781 240.980469 87.960938 240.25 89.015625 239.546875 C 90.070312 238.839844 91.140625 238.164062 92.230469 237.511719 C 93.316406 236.859375 94.417969 236.230469 95.539062 235.632812 C 96.65625 235.035156 97.789062 234.464844 98.933594 233.921875 C 100.082031 233.378906 101.238281 232.867188 102.410156 232.378906 C 103.582031 231.894531 104.765625 231.4375 105.957031 231.011719 C 107.152344 230.582031 108.355469 230.183594 109.570312 229.816406 C 110.78125 229.449219 112.003906 229.109375 113.234375 228.800781 C 114.464844 228.492188 115.699219 228.214844 116.945312 227.96875 C 118.1875 227.71875 119.4375 227.503906 120.691406 227.316406 C 121.945312 227.128906 123.203125 226.976562 124.464844 226.851562 C 125.726562 226.726562 126.992188 226.632812 128.257812 226.570312 C 129.523438 226.507812 130.792969 226.476562 132.058594 226.476562 C 133.328125 226.476562 134.59375 226.507812 135.859375 226.570312 C 137.128906 226.632812 138.390625 226.726562 139.652344 226.851562 C 140.914062 226.976562 142.171875 227.128906 143.425781 227.316406 C 144.679688 227.503906 145.929688 227.71875 147.175781 227.96875 C 148.417969 228.214844 149.65625 228.492188 150.882812 228.800781 C 152.113281 229.109375 153.335938 229.449219 154.550781 229.816406 C 155.761719 230.183594 156.964844 230.582031 158.160156 231.011719 C 159.355469 231.4375 160.535156 231.894531 161.707031 232.378906 C 162.878906 232.867188 164.039062 233.378906 165.183594 233.921875 C 166.332031 234.464844 167.460938 235.035156 168.582031 235.632812 C 169.699219 236.230469 170.800781 236.855469 171.890625 237.511719 C 172.976562 238.164062 174.046875 238.839844 175.101562 239.546875 C 176.15625 240.25 177.191406 240.980469 178.210938 241.738281 C 179.230469 242.492188 180.230469 243.273438 181.210938 244.078125 C 182.191406 244.882812 183.148438 245.714844 184.089844 246.566406 C 185.027344 247.417969 185.945312 248.292969 186.84375 249.191406 C 187.738281 250.085938 188.613281 251.007812 189.464844 251.945312 C 190.316406 252.886719 191.144531 253.847656 191.949219 254.828125 C 192.753906 255.808594 193.53125 256.808594 194.289062 257.828125 C 195.042969 258.847656 195.773438 259.886719 196.476562 260.941406 C 197.183594 261.996094 197.859375 263.066406 198.511719 264.15625 C 199.164062 265.246094 199.789062 266.347656 200.386719 267.46875 C 200.984375 268.585938 201.554688 269.71875 202.097656 270.867188 C 202.636719 272.015625 203.152344 273.175781 203.636719 274.347656 C 204.121094 275.519531 204.578125 276.703125 205.007812 277.898438 C 205.433594 279.09375 205.832031 280.296875 206.199219 281.511719 C 206.566406 282.726562 206.90625 283.949219 207.214844 285.179688 C 207.519531 286.410156 207.800781 287.648438 208.046875 288.894531 C 208.292969 290.136719 208.511719 291.386719 208.695312 292.644531 C 208.882812 293.898438 209.039062 295.160156 209.160156 296.421875 C 209.285156 297.683594 209.378906 298.949219 209.441406 300.21875 C 209.503906 301.484375 209.535156 302.753906 209.535156 304.023438 Z M 209.535156 304.023438 "/><path style=" stroke:none;fill-rule:nonzero;fill:#ffd048;fill-opacity:1;" d="M 144.167969 72.167969 C 144.167969 73.351562 144.140625 74.53125 144.082031 75.710938 C 144.023438 76.890625 143.9375 78.066406 143.820312 79.242188 C 143.707031 80.417969 143.5625 81.585938 143.386719 82.757812 C 143.214844 83.925781 143.011719 85.085938 142.78125 86.246094 C 142.550781 87.402344 142.292969 88.554688 142.007812 89.699219 C 141.722656 90.84375 141.40625 91.984375 141.0625 93.113281 C 140.722656 94.242188 140.351562 95.363281 139.953125 96.476562 C 139.554688 97.585938 139.132812 98.6875 138.679688 99.78125 C 138.230469 100.871094 137.75 101.949219 137.246094 103.015625 C 136.742188 104.085938 136.210938 105.140625 135.65625 106.179688 C 135.101562 107.222656 134.519531 108.25 133.914062 109.261719 C 133.304688 110.273438 132.675781 111.273438 132.019531 112.253906 C 131.363281 113.234375 130.683594 114.199219 129.980469 115.148438 C 129.277344 116.097656 128.554688 117.027344 127.804688 117.941406 C 127.058594 118.851562 126.285156 119.746094 125.496094 120.621094 C 124.703125 121.496094 123.890625 122.351562 123.054688 123.1875 C 122.21875 124.023438 121.367188 124.835938 120.492188 125.628906 C 119.617188 126.421875 118.726562 127.191406 117.8125 127.941406 C 116.902344 128.691406 115.972656 129.417969 115.023438 130.121094 C 114.074219 130.824219 113.113281 131.503906 112.132812 132.160156 C 111.148438 132.816406 110.152344 133.445312 109.140625 134.054688 C 108.128906 134.660156 107.105469 135.242188 106.0625 135.800781 C 105.023438 136.355469 103.96875 136.886719 102.902344 137.390625 C 101.835938 137.894531 100.757812 138.375 99.667969 138.828125 C 98.578125 139.277344 97.476562 139.703125 96.367188 140.101562 C 95.257812 140.5 94.136719 140.871094 93.007812 141.210938 C 91.878906 141.554688 90.742188 141.871094 89.597656 142.15625 C 88.453125 142.445312 87.304688 142.703125 86.144531 142.933594 C 84.988281 143.164062 83.828125 143.363281 82.660156 143.539062 C 81.492188 143.710938 80.324219 143.855469 79.148438 143.972656 C 77.972656 144.085938 76.796875 144.175781 75.621094 144.230469 C 74.441406 144.289062 73.261719 144.320312 72.082031 144.320312 C 70.902344 144.320312 69.722656 144.289062 68.546875 144.230469 C 67.367188 144.175781 66.191406 144.085938 65.015625 143.972656 C 63.84375 143.855469 62.671875 143.710938 61.503906 143.539062 C 60.339844 143.363281 59.175781 143.164062 58.019531 142.933594 C 56.863281 142.703125 55.710938 142.445312 54.566406 142.15625 C 53.421875 141.871094 52.285156 141.554688 51.15625 141.210938 C 50.027344 140.871094 48.910156 140.5 47.796875 140.101562 C 46.6875 139.703125 45.585938 139.277344 44.496094 138.828125 C 43.40625 138.375 42.328125 137.894531 41.261719 137.390625 C 40.195312 136.886719 39.140625 136.355469 38.101562 135.800781 C 37.0625 135.242188 36.035156 134.660156 35.023438 134.054688 C 34.011719 133.445312 33.015625 132.816406 32.035156 132.160156 C 31.054688 131.503906 30.089844 130.824219 29.140625 130.121094 C 28.195312 129.417969 27.265625 128.691406 26.351562 127.941406 C 25.441406 127.191406 24.546875 126.421875 23.671875 125.628906 C 22.800781 124.835938 21.945312 124.023438 21.109375 123.1875 C 20.277344 122.351562 19.464844 121.496094 18.671875 120.621094 C 17.878906 119.746094 17.109375 118.851562 16.359375 117.941406 C 15.613281 117.027344 14.886719 116.097656 14.183594 115.148438 C 13.480469 114.199219 12.800781 113.234375 12.144531 112.253906 C 11.492188 111.273438 10.859375 110.273438 10.253906 109.261719 C 9.648438 108.25 9.066406 107.222656 8.507812 106.179688 C 7.953125 105.140625 7.421875 104.085938 6.917969 103.015625 C 6.414062 101.949219 5.9375 100.871094 5.484375 99.78125 C 5.03125 98.6875 4.609375 97.585938 4.210938 96.476562 C 3.8125 95.363281 3.445312 94.242188 3.101562 93.113281 C 2.757812 91.984375 2.445312 90.84375 2.15625 89.699219 C 1.871094 88.554688 1.613281 87.402344 1.382812 86.246094 C 1.152344 85.085938 0.949219 83.925781 0.777344 82.757812 C 0.605469 81.585938 0.460938 80.417969 0.34375 79.242188 C 0.230469 78.066406 0.140625 76.890625 0.0859375 75.710938 C 0.0273438 74.53125 -0.00390625 73.351562 -0.00390625 72.167969 C -0.00390625 70.988281 0.0273438 69.808594 0.0859375 68.628906 C 0.140625 67.449219 0.230469 66.273438 0.34375 65.097656 C 0.460938 63.921875 0.605469 62.75 0.777344 61.582031 C 0.949219 60.414062 1.152344 59.25 1.382812 58.09375 C 1.613281 56.9375 1.871094 55.785156 2.15625 54.636719 C 2.445312 53.492188 2.757812 52.355469 3.101562 51.226562 C 3.445312 50.09375 3.8125 48.976562 4.210938 47.863281 C 4.609375 46.75 5.03125 45.648438 5.484375 44.558594 C 5.9375 43.46875 6.414062 42.390625 6.917969 41.320312 C 7.421875 40.253906 7.953125 39.199219 8.507812 38.160156 C 9.066406 37.117188 9.648438 36.089844 10.253906 35.078125 C 10.859375 34.0625 11.492188 33.066406 12.144531 32.085938 C 12.800781 31.105469 13.480469 30.136719 14.183594 29.191406 C 14.886719 28.242188 15.613281 27.3125 16.359375 26.398438 C 17.109375 25.484375 17.878906 24.589844 18.671875 23.714844 C 19.464844 22.84375 20.277344 21.988281 21.109375 21.152344 C 21.945312 20.316406 22.800781 19.503906 23.671875 18.710938 C 24.546875 17.917969 25.441406 17.144531 26.351562 16.398438 C 27.265625 15.648438 28.195312 14.921875 29.140625 14.21875 C 30.089844 13.515625 31.054688 12.835938 32.035156 12.179688 C 33.015625 11.523438 34.011719 10.890625 35.023438 10.285156 C 36.035156 9.679688 37.0625 9.097656 38.101562 8.539062 C 39.140625 7.984375 40.195312 7.453125 41.261719 6.945312 C 42.328125 6.441406 43.40625 5.964844 44.496094 5.511719 C 45.585938 5.058594 46.6875 4.636719 47.796875 4.238281 C 48.910156 3.839844 50.027344 3.46875 51.15625 3.125 C 52.285156 2.785156 53.421875 2.46875 54.566406 2.183594 C 55.710938 1.894531 56.863281 1.636719 58.019531 1.40625 C 59.175781 1.175781 60.339844 0.972656 61.503906 0.800781 C 62.671875 0.628906 63.84375 0.484375 65.015625 0.367188 C 66.191406 0.25 67.367188 0.164062 68.546875 0.105469 C 69.722656 0.0507812 70.902344 0.0195312 72.082031 0.0195312 C 73.261719 0.0195312 74.441406 0.0507812 75.621094 0.105469 C 76.796875 0.164062 77.972656 0.25 79.148438 0.367188 C 80.324219 0.484375 81.492188 0.628906 82.660156 0.800781 C 83.828125 0.972656 84.988281 1.175781 86.144531 1.40625 C 87.304688 1.636719 88.453125 1.894531 89.597656 2.183594 C 90.742188 2.46875 91.878906 2.785156 93.007812 3.125 C 94.136719 3.46875 95.257812 3.839844 96.367188 4.238281 C 97.476562 4.636719 98.578125 5.058594 99.667969 5.511719 C 100.757812 5.964844 101.835938 6.441406 102.902344 6.945312 C 103.96875 7.453125 105.023438 7.984375 106.0625 8.539062 C 107.105469 9.097656 108.128906 9.679688 109.140625 10.285156 C 110.152344 10.890625 111.148438 11.523438 112.132812 12.179688 C 113.113281 12.835938 114.078125 13.515625 115.023438 14.21875 C 115.972656 14.921875 116.902344 15.648438 117.8125 16.398438 C 118.726562 17.144531 119.617188 17.917969 120.492188 18.710938 C 121.367188 19.503906 122.21875 20.316406 123.054688 21.152344 C 123.890625 21.988281 124.703125 22.84375 125.496094 23.71875 C 126.285156 24.589844 127.058594 25.484375 127.804688 26.398438 C 128.554688 27.3125 129.277344 28.242188 129.980469 29.191406 C 130.683594 30.136719 131.363281 31.105469 132.019531 32.085938 C 132.675781 33.066406 133.304688 34.0625 133.914062 35.078125 C 134.519531 36.089844 135.101562 37.117188 135.65625 38.160156 C 136.210938 39.199219 136.742188 40.253906 137.246094 41.320312 C 137.75 42.390625 138.230469 43.46875 138.679688 44.558594 C 139.132812 45.648438 139.554688 46.75 139.953125 47.863281 C 140.351562 48.976562 140.722656 50.09375 141.0625 51.226562 C 141.40625 52.355469 141.722656 53.492188 142.007812 54.636719 C 142.292969 55.785156 142.550781 56.9375 142.78125 58.09375 C 143.011719 59.25 143.214844 60.414062 143.386719 61.582031 C 143.5625 62.75 143.707031 63.921875 143.820312 65.097656 C 143.9375 66.273438 144.023438 67.449219 144.082031 68.628906 C 144.140625 69.808594 144.167969 70.988281 144.167969 72.167969 Z M 144.167969 72.167969 "/><path style=" stroke:none;fill-rule:nonzero;fill:#ef5152;fill-opacity:1;" d="M 375 381.578125 L 371.652344 378.226562 L 212.953125 219.386719 L 212.933594 378.226562 L 212.953125 381.578125 Z M 375 381.578125 "/><path style=" stroke:none;fill-rule:nonzero;fill:#222436;fill-opacity:1;" d="M 375 381.578125 L 372.824219 379.398438 L 269.675781 276.160156 L 269.664062 379.398438 L 269.675781 381.578125 Z M 375 381.578125 "/><path style=" stroke:none;fill-rule:nonzero;fill:#222436;fill-opacity:1;" d="M 54.703125 299.703125 L 135.792969 299.703125 L 135.792969 381.488281 C 114.738281 382.5 93.347656 374.957031 77.265625 358.859375 C 61.039062 342.621094 53.527344 320.964844 54.703125 299.703125 Z M 54.703125 299.703125 "/><path style=" stroke:none;fill-rule:nonzero;fill:#ef5152;fill-opacity:1;" d="M 59.902344 144.605469 L 140.992188 144.605469 L 140.992188 226.386719 C 119.9375 227.398438 98.546875 219.855469 82.464844 203.761719 C 66.238281 187.519531 58.726562 165.863281 59.902344 144.601562 Z M 59.902344 144.605469 "/><path style=" stroke:none;fill-rule:nonzero;fill:#3279bd;fill-opacity:1;" d="M 249.390625 219.386719 L 330.484375 219.386719 L 330.484375 301.167969 C 309.425781 302.179688 288.035156 294.636719 271.957031 278.542969 C 255.730469 262.300781 248.214844 240.644531 249.390625 219.382812 Z M 249.390625 219.386719 "/><path style=" stroke:none;fill-rule:nonzero;fill:#ef5152;fill-opacity:1;" d="M 288.503906 108.042969 C 288.503906 109.21875 288.449219 110.390625 288.332031 111.558594 C 288.21875 112.726562 288.046875 113.890625 287.816406 115.042969 C 287.585938 116.195312 287.300781 117.332031 286.960938 118.457031 C 286.621094 119.582031 286.226562 120.6875 285.777344 121.769531 C 285.328125 122.855469 284.828125 123.917969 284.273438 124.953125 C 283.71875 125.988281 283.117188 126.996094 282.464844 127.972656 C 281.8125 128.949219 281.113281 129.890625 280.371094 130.800781 C 279.625 131.707031 278.835938 132.578125 278.007812 133.410156 C 277.175781 134.238281 276.308594 135.027344 275.402344 135.773438 C 274.492188 136.519531 273.550781 137.21875 272.574219 137.871094 C 271.601562 138.523438 270.59375 139.125 269.558594 139.679688 C 268.523438 140.234375 267.464844 140.734375 266.378906 141.1875 C 265.296875 141.636719 264.191406 142.03125 263.066406 142.371094 C 261.945312 142.710938 260.808594 142.996094 259.65625 143.226562 C 258.503906 143.457031 257.34375 143.628906 256.175781 143.742188 C 255.007812 143.859375 253.835938 143.917969 252.664062 143.917969 C 251.488281 143.917969 250.320312 143.859375 249.148438 143.742188 C 247.980469 143.628906 246.824219 143.457031 245.671875 143.226562 C 244.519531 142.996094 243.382812 142.710938 242.257812 142.371094 C 241.136719 142.03125 240.03125 141.636719 238.949219 141.1875 C 237.863281 140.734375 236.804688 140.234375 235.769531 139.679688 C 234.734375 139.125 233.726562 138.523438 232.75 137.871094 C 231.773438 137.21875 230.832031 136.519531 229.925781 135.773438 C 229.019531 135.027344 228.148438 134.238281 227.320312 133.410156 C 226.488281 132.578125 225.703125 131.707031 224.957031 130.800781 C 224.210938 129.890625 223.515625 128.949219 222.863281 127.972656 C 222.210938 126.996094 221.605469 125.988281 221.054688 124.953125 C 220.5 123.917969 220 122.855469 219.550781 121.769531 C 219.101562 120.6875 218.707031 119.582031 218.363281 118.457031 C 218.023438 117.332031 217.738281 116.195312 217.511719 115.042969 C 217.28125 113.890625 217.109375 112.726562 216.996094 111.558594 C 216.878906 110.390625 216.820312 109.21875 216.820312 108.042969 C 216.820312 106.867188 216.878906 105.695312 216.996094 104.527344 C 217.109375 103.355469 217.28125 102.195312 217.511719 101.042969 C 217.738281 99.890625 218.023438 98.753906 218.363281 97.628906 C 218.707031 96.503906 219.101562 95.398438 219.550781 94.316406 C 220 93.230469 220.5 92.167969 221.054688 91.132812 C 221.605469 90.097656 222.210938 89.089844 222.863281 88.113281 C 223.515625 87.136719 224.210938 86.191406 224.957031 85.285156 C 225.703125 84.375 226.488281 83.507812 227.320312 82.675781 C 228.148438 81.84375 229.019531 81.058594 229.925781 80.3125 C 230.832031 79.566406 231.773438 78.867188 232.75 78.214844 C 233.726562 77.5625 234.734375 76.960938 235.769531 76.40625 C 236.804688 75.851562 237.863281 75.351562 238.949219 74.898438 C 240.03125 74.449219 241.136719 74.054688 242.257812 73.714844 C 243.382812 73.371094 244.519531 73.085938 245.671875 72.859375 C 246.824219 72.628906 247.980469 72.457031 249.148438 72.34375 C 250.320312 72.226562 251.488281 72.167969 252.664062 72.167969 C 253.835938 72.167969 255.007812 72.226562 256.175781 72.34375 C 257.34375 72.457031 258.503906 72.628906 259.65625 72.859375 C 260.808594 73.085938 261.945312 73.371094 263.066406 73.714844 C 264.191406 74.054688 265.296875 74.449219 266.378906 74.898438 C 267.464844 75.351562 268.523438 75.851562 269.558594 76.40625 C 270.59375 76.960938 271.601562 77.5625 272.574219 78.214844 C 273.550781 78.867188 274.492188 79.566406 275.402344 80.3125 C 276.308594 81.058594 277.175781 81.84375 278.007812 82.675781 C 278.835938 83.507812 279.625 84.375 280.371094 85.285156 C 281.113281 86.191406 281.8125 87.136719 282.464844 88.113281 C 283.117188 89.089844 283.71875 90.097656 284.273438 91.132812 C 284.828125 92.167969 285.328125 93.230469 285.777344 94.316406 C 286.226562 95.398438 286.621094 96.503906 286.960938 97.628906 C 287.300781 98.753906 287.585938 99.890625 287.816406 101.042969 C 288.046875 102.195312 288.21875 103.355469 288.332031 104.527344 C 288.449219 105.695312 288.503906 106.867188 288.503906 108.042969 Z M 288.503906 108.042969 "/><path style=" stroke:none;fill-rule:nonzero;fill:#3279bd;fill-opacity:1;" d="M 54.785156 167.328125 C 39.65625 152.183594 19.828125 144.617188 0 144.617188 L 0 299.703125 C 19.828125 299.703125 39.65625 292.132812 54.785156 276.992188 C 85.039062 246.707031 85.039062 197.609375 54.785156 167.324219 Z M 54.785156 167.328125 "/><path style=" stroke:none;fill-rule:nonzero;fill:#222436;fill-opacity:1;" d="M 40.289062 66.773438 L 48.816406 66.773438 L 48.816406 179.945312 L 40.289062 179.945312 Z M 40.289062 66.773438 "/><path style=" stroke:none;fill-rule:nonzero;fill:#222436;fill-opacity:1;" d="M 23.820312 66.773438 L 32.351562 66.773438 L 32.351562 179.945312 L 23.820312 179.945312 Z M 23.820312 66.773438 "/><path style=" stroke:none;fill-rule:nonzero;fill:#222436;fill-opacity:1;" d="M 7.351562 66.773438 L 15.878906 66.773438 L 15.878906 179.945312 L 7.351562 179.945312 Z M 7.351562 66.773438 "/><path style=" stroke:none;fill-rule:nonzero;fill:#222436;fill-opacity:1;" d="M 189.167969 146.636719 L 197.699219 146.636719 L 197.699219 226.476562 L 189.167969 226.476562 Z M 189.167969 146.636719 "/><path style=" stroke:none;fill-rule:nonzero;fill:#222436;fill-opacity:1;" d="M 172.699219 146.636719 L 181.230469 146.636719 L 181.230469 226.476562 L 172.699219 226.476562 Z M 172.699219 146.636719 "/><path style=" stroke:none;fill-rule:nonzero;fill:#222436;fill-opacity:1;" d="M 156.230469 146.636719 L 164.761719 146.636719 L 164.761719 226.476562 L 156.230469 226.476562 Z M 156.230469 146.636719 "/><path style=" stroke:none;fill-rule:nonzero;fill:#ffd048;fill-opacity:1;" d="M 212.953125 143.761719 L 288.507812 143.761719 L 288.507812 219.386719 L 212.953125 219.386719 Z M 212.953125 143.761719 "/><path style=" stroke:none;fill-rule:nonzero;fill:#222436;fill-opacity:1;" d="M 144 80.34375 L 209.929688 80.34375 L 209.929688 146.332031 L 144 146.332031 Z M 144 80.34375 "/><path style=" stroke:none;fill-rule:nonzero;fill:#3279bd;fill-opacity:1;" d="M 144.167969 23.980469 L 288.507812 23.980469 L 288.507812 71.902344 L 144.167969 71.902344 Z M 144.167969 23.980469 "/></g></svg>